<svg xmlns="http://www.w3.org/2000/svg" width="46.13" height="30.75" viewBox="0 0 46.13 30.75">
  <defs>
    <style>
      .cls-1 {
        fill: #fff;
        fill-rule: evenodd;
      }
    </style>
  </defs>
  <path id="_" data-name="" class="cls-1" d="M4332.2,3205.92a1.929,1.929,0,0,1,1.93,1.93v24.98a3.841,3.841,0,0,1-3.85,3.84h-37.8a4.507,4.507,0,0,1-4.48-4.48v-21.78a1.848,1.848,0,0,1,.56-1.36,1.826,1.826,0,0,1,1.36-.56h3.21v-0.64a1.912,1.912,0,0,1,1.92-1.93h37.15Zm-39.72,26.91a0.619,0.619,0,0,0,.44-0.2,0.594,0.594,0,0,0,.21-0.44v-19.86h-1.29v19.86a0.619,0.619,0,0,0,.2.44A0.637,0.637,0,0,0,4292.48,3232.83Zm18.9-1.28a0.9,0.9,0,0,0,.68-0.28,0.929,0.929,0,0,0,.28-0.68v-0.64a0.956,0.956,0,0,0-.96-0.96h-12.17a0.913,0.913,0,0,0-.68.28,0.9,0.9,0,0,0-.28.68v0.64a0.929,0.929,0,0,0,.28.68,0.913,0.913,0,0,0,.68.28h12.17Zm16.66,0a0.913,0.913,0,0,0,.68-0.28,0.929,0.929,0,0,0,.28-0.68v-0.64a0.9,0.9,0,0,0-.28-0.68,0.913,0.913,0,0,0-.68-0.28h-12.17a0.956,0.956,0,0,0-.96.96v0.64a0.929,0.929,0,0,0,.28.68,0.9,0.9,0,0,0,.68.28h12.17Zm-16.66-7.69a0.9,0.9,0,0,0,.68-0.28,0.913,0.913,0,0,0,.28-0.68v-0.64a0.913,0.913,0,0,0-.28-0.68,0.9,0.9,0,0,0-.68-0.28h-12.17a0.956,0.956,0,0,0-.96.96v0.64a0.956,0.956,0,0,0,.96.96h12.17Zm16.66,0a0.956,0.956,0,0,0,.96-0.96v-0.64a0.956,0.956,0,0,0-.96-0.96h-12.17a0.9,0.9,0,0,0-.68.28,0.913,0.913,0,0,0-.28.68v0.64a0.913,0.913,0,0,0,.28.68,0.9,0.9,0,0,0,.68.28h12.17Zm0-7.69a0.913,0.913,0,0,0,.68-0.28,0.9,0.9,0,0,0,.28-0.68v-3.2a0.956,0.956,0,0,0-.96-0.96h-28.83a0.956,0.956,0,0,0-.96.96v3.2a0.9,0.9,0,0,0,.28.68,0.913,0.913,0,0,0,.68.28h28.83Z" transform="translate(-4288 -3205.94)"/>
</svg>
