<?xml version="1.0" standalone="no"?>
<!DOCTYPE svg PUBLIC "-//W3C//DTD SVG 20010904//EN"
 "http://www.w3.org/TR/2001/REC-SVG-20010904/DTD/svg10.dtd">
<svg version="1.0" xmlns="http://www.w3.org/2000/svg"
 width="1024.000000pt" height="1024.000000pt" viewBox="0 0 1024.000000 1024.000000"
 preserveAspectRatio="xMidYMid meet">
<metadata>
Created by potrace 1.11, written by Peter Selinger 2001-2013
</metadata>
<g transform="translate(0.000000,1024.000000) scale(0.100000,-0.100000)"
fill="#000000" stroke="none">
<path d="M4202 9888 c-166 -18 -320 -108 -420 -243 -51 -69 -67 -105 -93 -200
-18 -66 -19 -117 -16 -995 l2 -925 22 -66 c65 -191 227 -338 430 -390 73 -18
120 -19 1300 -16 l1225 2 0 275 c-1 151 -1 289 -1 306 l-1 31 -1164 -1 c-1028
-1 -1165 1 -1168 14 -2 8 -3 371 -3 805 l0 790 1168 0 1167 0 1 40 c0 56 0
525 0 555 l-1 25 -1193 0 c-655 0 -1221 -3 -1255 -7z"/>
<path d="M4487 6664 c-1 -1 -29 -6 -62 -9 -154 -18 -283 -68 -365 -142 -104
-93 -131 -175 -132 -400 -2 -202 3 -218 102 -353 51 -69 221 -248 315 -330 68
-60 228 -194 265 -222 38 -29 249 -192 265 -205 23 -19 315 -232 375 -275 l65
-45 70 48 c39 27 81 57 95 66 62 43 217 164 239 187 22 23 23 28 10 40 -8 8
-210 177 -449 376 -239 200 -510 426 -602 503 l-168 139 0 74 0 74 459 0 c358
0 460 -3 463 -12 2 -7 3 -82 2 -167 l-1 -153 36 6 c20 3 45 8 56 10 226 50
443 96 448 96 3 0 5 87 3 193 -3 182 -4 195 -29 250 -57 126 -189 205 -402
239 -59 9 -1049 21 -1058 12z"/>
<path d="M3757 5483 c-2 -1 -70 -5 -152 -8 -83 -3 -181 -8 -220 -10 -118 -6
-277 -16 -340 -20 -33 -2 -109 -7 -170 -10 -60 -3 -135 -8 -165 -11 -30 -2
-89 -6 -130 -9 -124 -8 -256 -17 -430 -30 -166 -12 -198 -15 -275 -21 -120
-10 -130 -10 -192 -12 -31 -1 -54 -4 -52 -6 4 -4 126 -19 349 -41 25 -3 65 -7
90 -10 53 -6 111 -12 195 -20 33 -3 76 -8 95 -10 19 -2 59 -7 88 -10 28 -3 73
-7 100 -10 26 -3 70 -7 97 -10 119 -12 153 -16 200 -21 28 -3 66 -7 85 -9 105
-12 130 -15 185 -20 33 -3 78 -8 100 -10 22 -3 67 -7 99 -10 33 -3 63 -8 68
-11 11 -7 -6 -37 -53 -96 -87 -111 -131 -247 -134 -421 -3 -191 20 -317 82
-447 66 -138 215 -255 368 -289 28 -6 64 -14 80 -17 17 -4 358 -8 760 -10 709
-2 731 -1 783 18 94 35 196 97 422 257 275 195 951 734 1082 862 56 55 80 71
140 93 82 29 207 62 270 71 24 4 46 8 49 11 4 2 24 6 45 10 22 3 89 14 149 24
61 11 130 22 155 25 25 3 56 8 70 10 14 2 45 7 70 10 25 3 56 8 70 10 14 2 48
7 75 10 62 7 100 12 195 24 41 5 109 13 150 16 41 4 91 11 110 15 l35 8 -35 2
c-19 1 -44 3 -55 6 -11 2 -45 6 -75 9 -30 3 -66 8 -80 10 -14 2 -56 7 -95 10
-38 4 -81 8 -95 10 -14 2 -61 7 -105 10 -44 4 -89 9 -100 11 -10 2 -62 6 -115
9 -52 4 -106 8 -120 10 -14 2 -63 7 -110 10 -47 3 -110 8 -140 10 -30 2 -102
7 -160 10 -58 3 -145 8 -195 11 -280 16 -283 15 -330 -19 -24 -18 -174 -133
-335 -257 -678 -523 -756 -583 -783 -604 -16 -11 -41 -30 -55 -42 -15 -12 -69
-53 -121 -93 l-93 -71 -669 0 c-368 0 -670 3 -670 8 -1 4 -2 95 -3 202 l-1
195 26 25 c14 14 46 39 70 55 24 16 46 33 49 36 6 6 262 175 363 238 37 24 67
47 67 51 0 13 -141 147 -235 225 l-80 66 -158 -3 c-87 -2 -159 -4 -160 -5z"/>
<path d="M6300 4493 c-25 -19 -58 -45 -73 -57 -141 -106 -268 -218 -286 -252
-9 -19 -3 -28 53 -81 92 -88 186 -157 263 -195 l68 -33 403 -2 402 -1 0 22 c0
30 -76 101 -270 255 -36 28 -72 57 -80 64 -71 59 -418 317 -425 316 -6 0 -30
-16 -55 -36z"/>
<path d="M3993 3292 c-99 -16 -218 -74 -295 -142 -60 -53 -136 -160 -158 -220
-38 -108 -38 -116 -36 -1064 1 -506 5 -931 8 -942 4 -12 11 -38 16 -58 36
-130 171 -279 314 -346 131 -62 87 -60 1421 -60 1152 0 1217 1 1218 18 1 22 1
562 0 582 -1 14 -120 16 -1153 15 -634 0 -1160 1 -1168 3 -13 3 -15 100 -14
805 l0 802 1163 2 c756 1 1166 5 1170 11 9 14 5 591 -3 600 -4 4 -547 7 -1206
7 -936 0 -1215 -3 -1277 -13z"/>
</g>
</svg>
