<?xml version="1.0" standalone="no"?>
<!DOCTYPE svg PUBLIC "-//W3C//DTD SVG 20010904//EN"
 "http://www.w3.org/TR/2001/REC-SVG-20010904/DTD/svg10.dtd">
<svg version="1.0" xmlns="http://www.w3.org/2000/svg"
 width="1024.000000pt" height="1024.000000pt" viewBox="0 0 1024.000000 1024.000000"
 preserveAspectRatio="xMidYMid meet">
<metadata>
Created by potrace 1.11, written by Peter Selinger 2001-2013
</metadata>
<g transform="translate(0.000000,1024.000000) scale(0.100000,-0.100000)"
fill="#000000" stroke="none">
<path d="M1006 6793 c-165 -34 -302 -166 -336 -323 -8 -40 -11 -242 -8 -740
l3 -685 24 -50 c45 -93 111 -165 192 -209 103 -57 86 -56 1056 -56 l893 0 0
225 0 225 -852 0 -853 0 2 513 c1 281 2 546 2 587 l1 75 850 -1 850 0 -2 225
-3 226 -879 0 c-656 0 -895 -3 -940 -12z"/>
<path d="M7934 6798 c-97 -14 -202 -68 -265 -135 -36 -39 -85 -129 -99 -182
-12 -44 -17 -1323 -5 -1403 14 -101 107 -229 210 -288 107 -61 82 -60 1062
-60 l893 0 0 225 0 225 -850 0 -850 0 0 53 c-4 349 0 1110 4 1114 3 4 385 7
848 7 l843 1 0 225 0 225 -871 0 c-479 0 -893 -3 -920 -7z"/>
<path d="M4573 6743 c-120 -16 -224 -62 -275 -123 -57 -66 -72 -123 -72 -275
0 -113 3 -135 21 -171 57 -110 217 -272 469 -476 22 -18 53 -42 68 -53 16 -11
33 -25 40 -31 14 -13 256 -192 347 -257 l66 -47 122 86 c66 48 137 102 156
120 l36 34 -451 375 -450 375 0 55 0 55 337 -2 337 -3 -1 -117 c-1 -85 2 -118
11 -118 6 0 95 18 196 40 101 22 186 40 188 40 2 0 2 64 0 143 -5 153 -14 188
-65 243 -47 52 -121 84 -253 110 -65 12 -729 10 -827 -3z"/>
<path d="M4107 5894 c-1 -1 -76 -5 -167 -8 -91 -4 -190 -9 -220 -11 -67 -5
-180 -12 -320 -20 -58 -4 -125 -8 -150 -10 -25 -3 -94 -7 -155 -10 -60 -4
-121 -8 -135 -10 -14 -2 -74 -7 -135 -11 -60 -4 -121 -8 -135 -9 -14 -2 -43
-4 -65 -4 -62 -2 -22 -18 65 -25 41 -4 91 -9 110 -11 53 -7 119 -14 180 -20
96 -9 164 -16 200 -20 19 -3 82 -9 140 -15 58 -6 121 -13 140 -15 19 -2 67 -7
105 -11 39 -3 78 -8 88 -10 10 -2 53 -6 95 -10 85 -7 91 -9 77 -29 -110 -155
-127 -204 -131 -361 -7 -295 96 -465 321 -532 77 -23 1118 -30 1184 -7 94 32
291 164 584 392 208 163 478 385 521 429 57 59 160 93 426 139 154 26 179 30
260 40 30 4 63 9 72 10 9 2 43 6 75 10 32 3 69 8 83 10 14 2 50 6 80 10 95 11
135 17 138 20 2 1 -30 6 -70 10 -40 4 -80 9 -88 10 -8 2 -51 6 -95 10 -44 4
-91 9 -105 10 -87 9 -236 22 -355 31 -49 3 -106 8 -125 10 -19 1 -98 6 -175 9
-77 4 -167 8 -200 10 -59 4 -61 3 -130 -49 -118 -90 -289 -221 -310 -239 -11
-9 -164 -126 -340 -261 l-320 -246 -490 3 -490 2 -1 145 c0 173 -20 145 214
298 90 59 173 115 185 124 l22 18 -65 62 c-36 35 -87 81 -114 103 l-50 40
-114 0 c-62 0 -114 -1 -115 -1z"/>
<path d="M2558 5793 c7 -3 16 -2 19 1 4 3 -2 6 -13 5 -11 0 -14 -3 -6 -6z"/>
<path d="M5892 5125 c-55 -42 -126 -100 -157 -131 l-58 -55 59 -55 c74 -69
162 -131 214 -149 53 -19 601 -17 607 2 6 16 -42 60 -187 177 -134 108 -367
286 -374 286 -3 0 -50 -34 -104 -75z"/>
<path d="M765 4173 c-52 -16 -110 -76 -124 -130 -13 -52 -8 -650 6 -684 19
-45 62 -87 106 -104 36 -13 95 -15 432 -13 l390 3 0 93 c0 52 -2 97 -5 101 -3
4 -169 7 -369 6 l-364 0 1 250 c0 138 1 258 1 268 1 16 19 17 249 17 136 -1
301 -1 367 -1 l120 1 0 102 -1 101 -383 1 c-278 1 -395 -2 -426 -11z"/>
<path d="M1872 4179 c-43 -5 -95 -37 -122 -73 -35 -48 -38 -78 -39 -396 -1
-308 0 -317 22 -360 12 -24 39 -58 60 -74 l39 -31 335 -3 c326 -3 336 -2 376
18 45 24 70 49 95 95 14 26 16 77 16 355 0 310 -1 327 -21 365 -53 101 -76
107 -428 109 -159 0 -309 -2 -333 -5z m576 -467 l-3 -267 -265 0 -265 0 -1
260 c0 143 1 263 3 267 2 4 123 7 269 7 l264 0 -2 -267z"/>
<path d="M2824 4182 l-31 -3 0 -470 0 -469 102 0 102 0 -1 289 c-1 160 1 299
4 311 4 17 30 -9 145 -146 180 -213 171 -204 178 -204 4 0 278 322 313 369 9
12 12 -62 10 -302 l-1 -317 103 0 102 0 1 303 c1 510 0 629 -6 635 -9 9 -207
5 -214 -5 -12 -17 -256 -308 -283 -338 -17 -19 -31 -26 -36 -20 -5 6 -69 82
-142 170 -74 88 -142 168 -151 179 -14 14 -33 19 -91 20 -40 0 -87 0 -104 -2z"/>
<path d="M4034 4182 l-21 -3 0 -470 0 -469 102 0 102 0 0 305 c0 168 2 307 5
310 2 2 33 -30 68 -73 35 -42 68 -81 74 -87 6 -5 47 -53 90 -105 43 -52 82
-96 86 -98 4 -1 48 46 97 105 50 59 99 118 109 129 28 32 97 115 111 133 9 13
12 -49 12 -284 0 -165 0 -308 0 -317 1 -16 13 -18 101 -18 l100 0 1 43 c0 52
0 878 -1 892 0 7 -39 10 -105 9 l-104 -2 -29 -34 c-16 -18 -86 -102 -156 -186
-71 -84 -131 -152 -136 -150 -4 2 -69 77 -146 168 -76 91 -146 173 -155 183
-13 14 -34 19 -100 20 -46 1 -93 1 -105 -1z"/>
<path d="M5253 4182 l-23 -3 0 -393 c0 -387 0 -392 23 -436 12 -24 39 -58 60
-74 l39 -31 331 -3 c345 -3 359 -2 418 41 15 10 37 38 50 60 l23 42 1 394 c0
326 -2 394 -14 399 -12 4 -98 6 -168 3 l-23 -1 -2 -367 -3 -368 -258 0 c-142
0 -262 2 -266 5 -4 3 -7 169 -7 369 l1 364 -80 1 c-44 1 -90 0 -102 -2z"/>
<path d="M6320 4180 c-4 -3 -7 -215 -7 -472 l0 -468 102 0 102 0 -1 306 c-1
168 2 308 6 310 4 2 13 -4 20 -14 12 -18 90 -111 113 -136 6 -6 44 -51 85
-101 41 -49 80 -95 85 -101 6 -6 57 -68 115 -137 l105 -127 106 0 106 0 0 470
c0 332 -3 470 -11 471 -15 1 -168 1 -183 0 -10 -1 -13 -74 -15 -311 l-3 -309
-55 66 c-30 36 -118 141 -195 233 -77 92 -156 187 -176 211 -21 24 -50 59 -67
78 l-29 34 -98 1 c-53 1 -100 -1 -105 -4z"/>
<path d="M7411 4175 c-4 -5 -7 -217 -7 -470 l1 -460 103 -3 102 -3 0 471 c0
369 -3 470 -12 471 -74 5 -181 2 -187 -6z"/>
<path d="M7682 4175 c-4 -5 -7 -50 -7 -100 l0 -90 185 -5 185 -5 0 -365 1
-365 102 -3 102 -3 0 371 0 370 185 0 185 0 0 100 c0 88 -2 100 -17 101 -141
7 -916 2 -921 -6z"/>
<path d="M8678 4179 c-8 -5 33 -66 163 -240 11 -14 74 -99 140 -189 l120 -164
-1 -115 c-1 -64 -1 -142 -1 -174 l1 -58 102 3 101 3 1 175 1 175 202 272 c111
150 209 283 217 295 l15 23 -122 0 -122 0 -114 -145 c-166 -210 -174 -220
-181 -220 -4 0 -72 82 -151 183 l-144 182 -108 0 c-60 0 -113 -3 -119 -6z"/>
</g>
</svg>
