<?xml version="1.0" encoding="utf-8"?>
<!-- Generator: Adobe Illustrator 22.0.1, SVG Export Plug-In . SVG Version: 6.00 Build 0)  -->
<svg version="1.1" id="Layer_6" xmlns="http://www.w3.org/2000/svg" xmlns:xlink="http://www.w3.org/1999/xlink" x="0px" y="0px"
	 viewBox="0 0 1989.2 777.7" style="enable-background:new 0 0 1989.2 777.7;" xml:space="preserve">
<g>
	<g>
		<path fill="#fff" d="M12.5,583.7C4.2,592,0,602,0,613.7v121.6c0,11.7,4.2,21.7,12.5,30s18.3,12.5,29.9,12.5h163.3V733H44.4V616h161.3v-44.7
			H42.4C30.8,571.2,20.8,575.4,12.5,583.7z M398.8,571.2H277.3c-11.7,0-21.6,4.2-29.9,12.5s-12.5,18.3-12.5,30v121.6
			c0,11.7,4.2,21.7,12.5,30s18.3,12.5,29.9,12.5h121.5c11.5,0,21.4-4.2,29.8-12.5c8.4-8.3,12.6-18.3,12.6-30V613.7
			c0-11.7-4.2-21.7-12.6-30C420.2,575.4,410.3,571.2,398.8,571.2z M396.2,733H279.3V616h116.9V733z M588.5,654.7l-69.9-83.5h-45.8
			v206.5h44.4V639.5l71.3,84.6l71.1-84.9v138.6h44.7V571.2h-46.1L588.5,654.7z M854.4,654.7l-69.9-83.5h-45.8v206.5H783V639.5
			l71.3,84.6l71.1-84.9v138.6h44.7V571.2H924L854.4,654.7z M1165.2,733h-116.9V571.2h-44.4v164.1c0,11.7,4.2,21.7,12.5,30
			c8.3,8.3,18.3,12.5,29.9,12.5h121.5c11.5,0,21.4-4.2,29.8-12.5c8.4-8.3,12.6-18.3,12.6-30V571.2h-45V733z M1403,708.9
			l-115.5-137.7h-45.8v206.5h44.4V639.5l116,138.3h45.8V571.2h-45V708.9z M1478.9,777.7h43.8V571.2h-43.8V777.7z M1536.8,616h80.8
			v161.8h44.7V616h80.8v-44.7h-206.3V616z M1935.6,571.2l-64.5,81.5l-64.8-81.5h-53l95.4,129.4v77.2h44.7v-76.9l95.7-129.7H1935.6z
			 M1543,425.3c19.2,18.2,42.2,27.3,69.1,27.3h376.8v-98.1h-372.2V98.1h372.2V0h-376.8c-26.9,0-49.9,9.1-69.1,27.3
			c-19.2,18.2-28.8,40.1-28.8,65.7v266.5C1514.2,385.1,1523.8,407,1543,425.3z M28.8,425.3c19.2,18.2,42.2,27.3,69.1,27.3h376.8
			v-98.1H102.5V98.1h372.2V0H97.8C70.9,0,47.9,9.1,28.8,27.3C9.6,45.6,0,67.5,0,93v266.5C0,385.1,9.6,407,28.8,425.3z"/>
	</g>
</g>
<path fill="#fff" d="M1249.6,263.8c8.4-6.8,27.7-18.9,51.9-22.3l190-26.7l-281.1-20.9l-109.3,87.7L879.9,104.4V71.9h153.9v60.5l84.7-14V91.2
	c0-23.7-2.7-55.3-26.4-73.7C1072,1.8,1034.7,0,1015.5,0H900.8c-55.5,0-77.4,13.2-86.5,20.2c-21.9,17.5-23.7,43.9-23.7,62.3v25.4
	c0,32.5,22.8,56.1,40.1,68.4l-27,15.6l-383.1,23.8l287.7,32.1c-6.8,5-13.1,10.6-17.8,17.1c-12.7,16.7-13.7,34.2-13.7,50.9v29.8
	c0,19.3,0,61.4,25.5,85.1c23.7,21.1,62.8,21.9,92,21.9h167.6c10,0,34.6-0.9,47.4-4.4c12.7-3.5,29.1-13.2,41-22.8l41.9-36l77.4,63.2
	h143L1164,332.4L1249.6,263.8z M986.4,373.7H767.8v-77.2L889,224.5l141.2,113.1L986.4,373.7z"/>
</svg>
