<svg xmlns="http://www.w3.org/2000/svg" width="40.97" height="41" viewBox="0 0 40.97 41">
  <defs>
    <style>
      .cls-1 {
        fill: #fff;
        fill-rule: evenodd;
      }
    </style>
  </defs>
  <path id="_" data-name="ïƒ" class="cls-1" d="M3496.19,3231.61c-0.54-.48-1.1-0.93-1.69-1.36a1.383,1.383,0,0,0-.84-0.2,1.26,1.26,0,0,0-.76.36l-1.76,1.68a3.036,3.036,0,0,0-.88,2.41,1.092,1.092,0,0,0,.48.96,5.732,5.732,0,0,1,2.56,4.8,5.593,5.593,0,0,1-1.68,4.09l-5.36,5.36a5.593,5.593,0,0,1-4.09,1.68,5.736,5.736,0,0,1-5.72-5.8,5.636,5.636,0,0,1,1.72-4.05l1.04-1.12a1.174,1.174,0,0,0,.32-1.28,14.452,14.452,0,0,1-.8-4.24,1.275,1.275,0,0,0-.84-1.12,1.09,1.09,0,0,0-1.32.24l-3.05,3.04a11.715,11.715,0,0,0-3.12,5.44,12.483,12.483,0,0,0,0,6.25,12.177,12.177,0,0,0,8.65,8.65,12.443,12.443,0,0,0,6.24,0,11.783,11.783,0,0,0,5.45-3.12l5.45-5.45a11.783,11.783,0,0,0,3.12-5.45A12.39,12.39,0,0,0,3496.19,3231.61Zm11.29-11.29a12.255,12.255,0,0,1,3.12,5.53,12.443,12.443,0,0,1,0,6.24,11.7,11.7,0,0,1-3.12,5.45l-3.05,3.04a1.09,1.09,0,0,1-1.32.24,1.275,1.275,0,0,1-.84-1.12,14.452,14.452,0,0,0-.8-4.24,1.174,1.174,0,0,1,.32-1.28l1.04-1.13a5.614,5.614,0,0,0,1.72-4.04,5.736,5.736,0,0,0-5.72-5.8,5.593,5.593,0,0,0-4.09,1.68l-5.36,5.36a5.771,5.771,0,0,0,.88,8.89,1.069,1.069,0,0,1,.48.96,3.015,3.015,0,0,1-.88,2.4l-1.76,1.69a1.26,1.26,0,0,1-.76.36,1.383,1.383,0,0,1-.84-0.2c-0.59-.43-1.15-0.89-1.69-1.37a12.316,12.316,0,0,1-3.12-5.52,12.483,12.483,0,0,1,0-6.25,11.8,11.8,0,0,1,3.12-5.44l5.45-5.45a11.612,11.612,0,0,1,5.45-3.12,12.443,12.443,0,0,1,6.24,0A12.163,12.163,0,0,1,3507.48,3220.32Z" transform="translate(-3470.03 -3216.81)"/>
</svg>
